<?xml version="1.0" standalone="no"?>
<!DOCTYPE svg PUBLIC "-//W3C//DTD SVG 1.1//EN" "http://www.w3.org/Graphics/SVG/1.1/DTD/svg11.dtd" >
<!--
2013-9-30: Created.
-->
<svg>
<metadata>
Created by iconfont
</metadata>
<defs>

<font id="iconfont" horiz-adv-x="1024" >
  <font-face
    font-family="iconfont"
    font-weight="500"
    font-stretch="normal"
    units-per-em="1024"
    ascent="896"
    descent="-128"
  />
    <missing-glyph />
    
    <glyph glyph-name="huanyipi" unicode="&#58885;" d="M949.252087 465.467453c-9.240455 7.446599-22.75526 5.965875-30.169113-3.328815l-36.743856-46.075385c-1.208525 17.817808-3.606131 35.751249-7.338129 53.722552C829.114916 691.578214 613.312942 833.875081 393.013537 787.690202 172.691619 741.49202 31.294239 524.29835 77.179288 302.529477c45.88505-221.791385 261.688048-364.101555 482.009965-317.880861 80.081896 16.785292 148.922774 56.816007 202.800869 110.918205 0.199545 0.198521 0.401136 0.355087 0.602727 0.578168 0.956791 0.979304 1.290389 2.113127 2.248204 3.115967 1.578961 2.670829 2.714831 5.855358 2.714831 9.171893 0 9.82067-7.92346 17.790178-17.675568 17.790178-5.254677 0-9.842159-2.405793-13.093203-6.078439l-0.130983 0.11154c-48.916083-49.047066-111.676475-85.202521-184.344518-100.432387-199.506846-41.833781-394.937864 87.050612-436.482049 287.880593-41.566698 200.809515 86.493933 397.531945 285.999756 439.364703 199.506846 41.822524 394.937864-87.073124 436.480003-287.880593 3.207042-15.446807 5.425569-30.855752 6.712889-46.165436l-44.603871 36.034704c-9.262968 7.470135-22.753213 5.966898-30.169113-3.317559-7.435343-9.317203-5.944386-22.898523 3.297093-30.390147 0.045025-0.022513 0.045025-0.022513 0.090051-0.022513l82.132602-66.39006c0.020466 0 0.065492-0.044002 0.086981-0.066515 4.692882-3.793396 10.480702-5.266957 16.016789-4.590552 5.539156 0.555655 10.861372 3.25616 14.617929 7.964392 0.021489 0.021489 0.045025 0.066515 0.045025 0.066515l65.944921 82.71998c0.021489 0.021489 0.021489 0.021489 0.065492 0.045025C959.95894 444.393485 958.492542 457.987085 949.252087 465.467453z"  horiz-adv-x="1024" />

    
    <glyph glyph-name="guanbi" unicode="&#58926;" d="M972.697 772.151l-82.334 82.334-378.348-378.348-378.348 378.348-82.334-82.334 378.348-378.348-378.348-378.348 82.334-82.334 378.348 378.348 378.348-378.348 82.334 82.334-378.348 378.348z"  horiz-adv-x="1024" />

    
    <glyph glyph-name="xuanzhong-copy" unicode="&#58883;" d="M512.696 830.487c-246.962 0-447.163-200.202-447.163-447.163s200.202-447.163 447.163-447.163 447.163 200.202 447.163 447.163-200.201 447.163-447.163 447.163zM789.365 494.55l-300.382-300.381c-2.943-2.943-8.237-7.496-8.237-7.496s-4.63-5.37-7.576-8.313l-15.809-15.809c-8.731-8.731-22.885-8.731-31.618 0l-189.715 189.715c-8.732 8.731-8.732 22.887 0 31.618l15.808 15.809c8.734 8.731 22.887 8.731 31.621 0l158.095-158.097 300.384 300.384c8.731 8.728 22.885 8.728 31.618 0l15.809-15.812c8.732-8.73 8.732-22.886 0.001-31.618z"  horiz-adv-x="1024" />

    
    <glyph glyph-name="paixu" unicode="&#59093;" d="M178.685002 486.398995l682.671673 0-341.335837 409.601005L178.685002 486.398995 178.685002 486.398995zM178.685002 486.398995M861.356675 281.602242 178.685002 281.602242l341.335837-409.602254L861.356675 281.602242 861.356675 281.602242zM861.356675 281.602242"  horiz-adv-x="1052" />

    
    <glyph glyph-name="shouqi1" unicode="&#59270;" d="M10.59 120.306c14.115-14.111 36.979-14.111 51.127 0l450.283 450.282 450.282-450.282c14.151-14.111 37.016-14.111 51.129 0 14.112 14.111 14.113 37.014 0 51.125l-471.211 471.21c-1.232 1.787-2.636 3.493-4.226 5.086-7.15 7.148-16.579 10.66-25.973 10.549-9.395 0.111-18.826-3.396-25.977-10.549-1.593-1.593-2.993-3.301-4.228-5.089l-471.207-471.206c-14.112-14.111-14.113-37.014 0.001-51.125z"  horiz-adv-x="1024" />

    
    <glyph glyph-name="jiantou" unicode="&#58928;" d="M537.6 665.6L704 505.6c12.8-12.8 12.8-32 0-44.8s-32-12.8-44.8 0L544 569.6v-448c0-19.2-12.8-32-32-32s-32 12.8-32 32v448L364.8 454.4c-12.8-6.4-32-6.4-44.8 6.4-12.8 12.8-12.8 32 0 44.8l160 160c6.4 6.4 32 32 57.6 0z"  horiz-adv-x="1024" />

    
    <glyph glyph-name="youjiantou" unicode="&#58898;" d="M900.635833 322.15035l49.568952 49.561789c8.827039 8.862855 9.038864 22.99369 0.484024 31.54546L535.046391 825.838034c-8.555863 8.579399-22.664186 8.333806-31.500435-0.503467l-60.798715-60.8376c-8.831132-8.839319-9.04398-22.944572-0.490163-31.524994l340.38234-346.087273-339.342661-352.928075c-8.490372-8.468882-8.269337-22.427802 0.485047-31.193442l60.229756-60.173475c8.752338-8.747221 22.707165-8.979512 31.190373-0.469697L900.635833 322.15035z"  horiz-adv-x="1024" />

    
    <glyph glyph-name="heng--shouye_jiaose_yinlejianshang_" unicode="&#58882;" d="M768 492.544a179.9168 179.9168 0 0 0-133.12 58.368L433.5616 436.0192a192.2048 192.2048 0 0 0 8.4992-52.0192 187.6992 187.6992 0 0 0-19.7632-81.92l194.56-111.2064a180.8384 180.8384 0 1 0-28.2624-97.0752 140.4928 140.4928 0 0 0 1.8432 19.7632L369.5616 239.104l0.9216 0.9216a176.4352 176.4352 0 0 0-109.2608-37.6832A181.3504 181.3504 0 1 0 393.1136 506.88l201.5232 114.688a192.4096 192.4096 0 0 0-8.4992 51.8144A181.3504 181.3504 0 1 0 768 492.544zM768-15.36a108.3392 108.3392 0 1 1-108.3392 108.4416A108.3392 108.3392 0 0 1 768-15.36zM260.3008 492.544A108.3392 108.3392 0 1 1 368.64 384a108.3392 108.3392 0 0 1-108.3392 108.544zM768 782.7456a108.3392 108.3392 0 1 1 108.3392-108.3392A108.3392 108.3392 0 0 1 768 782.7456z m0 0"  horiz-adv-x="1024" />

    
    <glyph glyph-name="ziyuan" unicode="&#58937;" d="M723.745168 165.01646400000004H300.804581c-14.476736 0-26.204724-16.309234-26.204724-36.649964s11.727989-36.649964 26.204724-36.649965H723.745168c14.476736 0 26.204724 16.309234 26.204725 36.649965s-11.727989 36.649964-26.204725 36.649964zM723.745168 384.3665H300.804581c-14.476736 0-26.204724-16.492484-26.204724-36.649965s11.727989-36.649964 26.204724-36.649964H723.745168c14.476736 0 26.204724 16.309234 26.204725 36.649964s-11.727989 36.649964-26.204725 36.649965zM438.241947 749.4001430000001h183.249821a36.649964 36.649964 0 1 1 0 73.299929h-183.249821a36.649964 36.649964 0 0 1 0-73.299929zM893.801002 822.700072h-53.692197a36.649964 36.649964 0 1 1 0-73.299929h53.692197c6.963493 0 18.324982-14.110236 18.324982-36.649964v-109.949893H109.858268v109.949893a36.649964 36.649964 0 0 0 36.649964 36.649964h73.299928a36.649964 36.649964 0 0 1 36.649965 36.649964 36.649964 36.649964 0 0 1-36.649965 36.649965H146.508232a109.949893 109.949893 0 0 1-109.949893-109.949893v-730.800286a109.949893 109.949893 0 0 1 109.949893-109.949893h730.983536a109.949893 109.949893 0 0 1 109.949893 109.949893V712.750179c-0.549749 61.02219-42.147459 109.949893-93.640659 109.949893z m-16.858983-877.766643H146.508232a36.649964 36.649964 0 0 0-36.649964 36.649964V530.5998569999999h803.183965v-548.649964a36.649964 36.649964 0 0 0-36.100214-36.833214zM730.708661 712.750179a36.649964 36.649964 0 0 1 36.649965 36.649964V859.350036a36.649964 36.649964 0 1 1-73.299929 0v-109.949893a36.649964 36.649964 0 0 1 36.649964-36.649964zM329.758053 712.750179a36.649964 36.649964 0 0 1 36.649964 36.649964V859.350036a36.649964 36.649964 0 1 1-73.299928 0v-109.949893a36.649964 36.649964 0 0 1 36.649964-36.649964z"  horiz-adv-x="1024" />

    
    <glyph glyph-name="yuanquan" unicode="&#58969;" d="M512.3-62C265.4-62 64.5 138.9 64.5 385.8S265.4 833.5 512.2 833.5C759.1 833.5 960 632.7 960 385.8 960 138.9 759.1-62 512.3-62z m0 848.4c-220.9 0-400.6-179.7-400.6-400.6 0-220.9 179.7-400.6 400.6-400.6 220.9 0 400.6 179.7 400.6 400.6 0 220.9-179.7 400.6-400.6 400.6z"  horiz-adv-x="1024" />

    
    <glyph glyph-name="shouqi2" unicode="&#59029;" d="M981.333333 384c0 260.266667-209.066667 469.333333-469.333333 469.333333S42.666667 644.266667 42.666667 384s209.066667-469.333333 469.333333-469.333333 469.333333 209.066667 469.333333 469.333333z m-202.666666-115.2c-12.8-12.8-32-12.8-44.8 0L514.133333 486.4 298.666667 268.8c-12.8-12.8-32-12.8-44.8 0-12.8 12.8-12.8 32 0 44.8L514.133333 576l264.533334-262.4c12.8-12.8 12.8-32 0-44.8z"  horiz-adv-x="1024" />

    
    <glyph glyph-name="huanyihuan" unicode="&#59046;" d="M502.457 53.351c-0.078 0.158-0.234 0.236-0.331 0.392L422.62 177.556c-5.65 9.267-17.911 12.514-27.453 7.352l-7.079-4.34c-9.542-5.202-9.327-18.575-3.675-27.806l51.148-79.087a329.826 329.826 0 0 0-13.215 3.14c-89.261 23.27-164.758 83.456-207.209 165.151-40.065 77.157-47.613 165.227-21.195 248.017 26.397 82.75 86.329 150.366 163.74 190.295 13.18 6.765 18.342 22.956 11.518 36.056-6.804 13.14-23.034 18.302-36.213 11.498-90.18-46.498-159.518-125.221-190.256-221.66-30.757-96.398-21.997-198.976 24.677-288.844C216.84 122.221 304.791 52.141 408.78 25c1.15-0.298 2.307-0.572 3.461-0.86l-70.217-35.47c-9.503-5.202-12.671-16.895-7.02-26.163l2.718-7.038c5.67-9.23 15.448-12.514 24.93-7.353l128.741 65.699c0.156 0.079 0.332 0.079 0.488 0.156l8.643 4.733c4.772 2.619 7.92 6.882 9.171 11.615 1.31 4.77 0.723 10.05-2.111 14.664l-5.126 8.368z m360.274 497.95c-49.354 95.07-134.587 165.15-238.553 192.29a381.956 381.956 0 0 1-22.186 5.095l68.723 34.717c9.523 5.201 15.174 16.932 9.542 26.2l-2.738 7c-5.67 9.269-17.95 12.555-27.435 7.353l-128.74-65.661c-0.156-0.118-0.332-0.078-0.489-0.196l-8.642-4.693c-4.771-2.62-7.919-6.882-9.19-11.654-1.31-4.732-0.704-10.011 2.132-14.625l5.123-8.369c0.077-0.156 0.234-0.274 0.33-0.43l79.506-123.774c5.65-9.268 17.912-12.553 27.454-7.352l6.256 4.34c9.504 5.162 10.148 18.537 4.498 27.766l-51.358 79.412a331.366 331.366 0 0 0 33.565-6.907c89.301-23.308 162.097-83.494 204.49-165.11 40.064-77.16 47.594-165.228 21.176-248.018-26.396-82.79-83.59-150.366-161.023-190.294-13.18-6.806-18.32-22.957-11.496-36.096 4.77-9.189 14.137-14.47 23.875-14.47 4.144 0 8.368 0.977 12.338 3.01 90.18 46.5 156.78 125.222 187.518 221.62 30.758 96.44 21.998 199.017-24.676 288.846z"  horiz-adv-x="1024" />

    
    <glyph glyph-name="xiajiantou" unicode="&#58881;" d="M512 90.64299998000001l479.99999999 523.88000002-960.00099998 0z"  horiz-adv-x="1024" />

    
    <glyph glyph-name="jiahao" unicode="&#59167;" d="M912 620.4v-472.7c0-45-16-83.6-48-115.7-32-32-70.5-48-115.7-48H275.7c-45 0-83.6 16-115.7 48s-48 70.5-48 115.7V620.4c0 45 16 83.6 48 115.7s70.5 48 115.7 48h472.7c45 0 83.6-16 115.7-48C896 704 912 665.4 912 620.4z m-72.7-472.8V620.4c0 25-9 46.4-26.6 64.2-17.8 17.8-39.2 26.6-64.2 26.6H275.7c-25 0-46.4-9-64.2-26.6-17.8-17.8-26.6-39.2-26.6-64.2v-472.7c0-25 8.8-46.4 26.6-64.2 17.8-17.8 39.2-26.6 64.2-26.6h472.7c25 0 46.4 8.8 64.2 26.6 17.8 17.8 26.7 39.2 26.7 64.1z m-72.7 254.6v-36.3c0-5.3-1.7-9.7-5.1-13-3.5-3.5-7.8-5.1-13-5.1h-200v-200c0-5.3-1.7-9.7-5.1-13-3.5-3.5-7.8-5.1-13-5.1h-36.3c-5.3 0-9.7 1.7-13 5.1-3.5 3.5-5.1 7.8-5.1 13v200H276c-5.3 0-9.7 1.7-13 5.1-3.5 3.5-5.1 7.8-5.1 13v36.3c0 5.3 1.7 9.7 5.1 13 3.5 3.5 7.8 5.1 13 5.1h200v200c0 5.3 1.7 9.7 5.1 13 3.5 3.5 7.8 5.1 13 5.1h36.3c5.3 0 9.7-1.7 13-5.1 3.5-3.5 5.1-7.8 5.1-13v-200h200c5.3 0 9.7-1.7 13-5.1 3.4-3.4 5.1-7.8 5.1-13z"  horiz-adv-x="1024" />

    
    <glyph glyph-name="jianhao" unicode="&#59172;" d="M912 620.4v-472.7c0-45-16-83.6-48-115.7-32-32-70.5-48-115.7-48H275.7c-45 0-83.6 16-115.7 48s-48 70.5-48 115.7V620.4c0 45 16 83.6 48 115.7s70.5 48 115.7 48h472.7c45 0 83.6-16 115.7-48C896 704 912 665.4 912 620.4z m-72.7-472.8V620.4c0 25-9 46.4-26.6 64.2-17.8 17.8-39.2 26.6-64.2 26.6H275.7c-25 0-46.4-9-64.2-26.6-17.8-17.8-26.6-39.2-26.6-64.2v-472.7c0-25 8.8-46.4 26.6-64.2 17.8-17.8 39.2-26.6 64.2-26.6h472.7c25 0 46.4 8.8 64.2 26.6 17.8 17.8 26.7 39.2 26.7 64.1z m-72.7 254.6v-36.3c0-5.3-1.7-9.7-5.1-13-3.5-3.5-7.8-5.1-13-5.1H275.7c-5.3 0-9.7 1.7-13 5.1-3.5 3.5-5.1 7.8-5.1 13v36.3c0 5.3 1.7 9.7 5.1 13 3.5 3.5 7.8 5.1 13 5.1h472.7c5.3 0 9.7-1.7 13-5.1 3.5-3.4 5.2-7.8 5.2-13z"  horiz-adv-x="1024" />

    
    <glyph glyph-name="wenhao" unicode="&#58880;" d="M512-108.307692c-272.410256 0-492.307692 219.897436-492.307692 492.307692s219.897436 492.307692 492.307692 492.307692 492.307692-219.897436 492.307692-492.307692-219.897436-492.307692-492.307692-492.307692z m6.564103 813.948718c-62.358974 0-111.589744-19.692308-147.692308-59.076923-36.102564-36.102564-52.512821-85.333333-52.512821-147.692308h68.923077c0 42.666667 9.846154 75.487179 29.538462 101.74359 19.692308 29.538462 52.512821 42.666667 98.461538 42.666666 36.102564 0 65.641026-9.846154 85.333334-29.538461 19.692308-19.692308 29.538462-45.948718 29.538461-82.051282 0-26.25641-9.846154-49.230769-26.25641-68.923077-6.564103-6.564103-16.410256-16.410256-29.538462-32.820513-49.230769-42.666667-75.487179-75.487179-88.615384-101.74359-9.846154-22.974359-16.410256-49.230769-16.410257-75.487179v-19.692308h72.205129v19.692308c0 22.974359 6.564103 45.948718 16.410256 65.641025 9.846154 16.410256 22.974359 32.820513 42.666667 49.23077 39.384615 32.820513 62.358974 55.794872 72.205128 68.923077 22.974359 29.538462 32.820513 62.358974 32.820513 101.743589 0 52.512821-16.410256 95.179487-49.23077 124.717949-36.102564 26.25641-78.769231 42.666667-137.846153 42.666667z m-13.128206-538.256411c-16.410256 0-26.25641-3.282051-39.384615-16.410256-9.846154-9.846154-16.410256-22.974359-16.410256-36.102564s3.282051-26.25641 16.410256-39.384616c9.846154-9.846154 22.974359-16.410256 39.384615-16.410256s26.25641 6.564103 39.384616 16.410256c9.846154 9.846154 16.410256 22.974359 16.410256 39.384616s-6.564103 26.25641-16.410256 36.102564c-9.846154 9.846154-22.974359 16.410256-39.384616 16.410256z"  horiz-adv-x="1024" />

    
    <glyph glyph-name="quxiao" unicode="&#58919;" d="M877.2 794H146.8c-24.7 0-44.8-20-44.8-44.8v-730.5c0-24.7 20.1-44.8 44.8-44.8h730.5c24.7 0 44.8 20.1 44.8 44.8V749.2C922 774 902 794 877.2 794z m-13.6-723.2c0-21.2-17.2-38.4-38.4-38.4H198.8c-21.2 0-38.4 17.2-38.4 38.4V697.2c0 21.2 17.2 38.4 38.4 38.4h626.4c21.2 0 38.4-17.2 38.4-38.4v-626.4zM618.7 537.9L512 431.3 405.3 537.9c-12.8 12.8-34.4 12.8-47.3 0-12.8-12.8-12.8-34.4 0-47.3L464.7 384 358.1 277.3c-12.8-12.8-12.8-34.4 0-47.2 12.8-12.8 34.4-12.8 47.3 0L512 336.8l106.7-106.7c12.8-12.8 34.4-12.8 47.3 0 12.8 12.8 12.8 34.4 0 47.3L559.3 384l106.6 106.7c12.8 12.8 12.8 34.4 0 47.3-12.8 12.7-34.4 12.7-47.2-0.1z m0 0"  horiz-adv-x="1024" />

    
    <glyph glyph-name="baocun" unicode="&#59005;" d="M923.594752 896H104.493056c-37.658624 0-68.3008-30.519296-68.3008-68.298752V-59.6992c0-37.656576 30.519296-68.298752 68.298752-68.298752h819.101696c37.656576 0 68.298752 30.519296 68.298752 68.298752V827.701248C991.893504 865.480704 961.251328 896 923.594752 896zM275.17952 486.449152H753.02912c37.656576 0 68.298752 30.519296 68.298752 68.298752V827.701248h102.387712V-59.6992H104.493056V827.701248h102.387712v-273.074176c0-37.658624 30.519296-68.17792 68.298752-68.17792z m0 68.298752V827.701248H753.02912v-273.074176H275.17952v0.120832zM752.90624 281.673728H275.17952c-18.829312 0-34.08896-15.259648-34.08896-34.08896s15.259648-34.08896 34.08896-34.08896H753.02912c18.829312 0 34.08896 15.259648 34.08896 34.08896s-15.259648 34.08896-34.21184 34.08896z"  horiz-adv-x="1024" />

    
    <glyph glyph-name="shanchu" unicode="&#58918;" d="M785.339 769.53H218.263c-53.036 0-93.833-40.797-93.833-93.833v-32.637h754.741v32.637c0 48.956-40.796 93.833-93.832 93.833zM622.15 830.725l12.24-101.992H369.21l12.24 101.992h240.7zM630.311 896H377.37c-24.479 0-48.957-20.398-53.036-48.956l-20.399-134.63c-4.08-24.478 16.319-48.956 40.797-48.956H658.87c24.478 0 44.876 20.399 40.796 48.956l-20.398 134.63C679.267 875.602 654.789 896 630.31 896z m171.346-318.215H201.944c-32.637 0-61.195-28.558-57.115-65.275l53.036-575.235c4.08-36.717 32.637-65.275 69.354-65.275h473.243c32.638 0 65.275 28.558 69.355 65.275l53.036 575.235c0 36.717-24.478 65.275-61.196 65.275zM377.371 2.55h-93.833L250.9 447.235h126.47V2.55z m187.665 0h-126.47V447.235h126.47V2.55z m159.107 0h-93.832V447.235h126.47L724.143 2.55z"  horiz-adv-x="1024" />

    
    <glyph glyph-name="xiugai" unicode="&#58996;" d="M721.4 881zM915 761.9L797.7 879.2C776 900.9 742 901.6 721.4 881L144 303.6c-10.1-10.1-21.5-30.1-25.1-44.3L70.6 69.1c-7.2-28.3 9.9-45.3 38.3-37.5l186.2 50.9c14.4 3.9 34.1 15.4 44.3 25.6l577.4 577.4c20.7 20.7 19.8 54.8-1.8 76.4z m-78.2-78.2l-39.1-39.1-497.4-497.4c-4.1-4.1-16-11-21.8-12.6l-145-39.6 37.7 148.7c1.3 5.1 8.1 17 11.8 20.8l497.4 497.4 117.3-117.3 39.1 39.1L719.6 801l40.9 40.9 117.3-117.3-41-40.9zM56-100.4c0 15.3 12.2 27.6 27.8 27.6h856.6c15.3 0 27.6-12.4 27.6-27.6 0-15.3-12.4-27.6-27.6-27.6H83.8c-7.4 0-14.4 2.8-19.7 8-5.2 5.2-8.1 12.3-8.1 19.6z"  horiz-adv-x="1024" />

    
    <glyph glyph-name="tianjiachenggong" unicode="&#58907;" d="M509.626729-94.135718c264.794353 0 479.509082 215.726682 479.509083 481.882353 0 266.167718-214.714729 481.882353-479.509083 481.882353C244.832376 869.628988 30.117647 653.914353 30.117647 387.746635c0-266.155671 214.702682-481.882353 479.509082-481.882353z m0-24.094117C231.496282-118.229835 6.023529 108.303059 6.023529 387.746635s225.472753 505.976471 503.6032 505.976471c278.130447 0 503.6032-226.532894 503.6032-505.976471s-225.472753-505.976471-503.6032-505.97647zM444.175059 229.014588l281.10607 281.106071a12.047059 12.047059 0 0 0 17.046589 0l0.072282-0.072283a12.047059 12.047059 0 0 0 0-17.046588L452.776659 203.378447a12.047059 12.047059 0 0 0-17.046588 0L281.6 357.496471a12.047059 12.047059 0 1 0 17.034541 17.046588l145.528471-145.540518z"  horiz-adv-x="1024" />

    
    <glyph glyph-name="arrow-left-copy" unicode="&#58960;" d="M694.475 63.547000000000025l-56.285-58.26-393.996 392.021 393.996 392.021 56.285-58.26-331.786-333.761z"  horiz-adv-x="1024" />

    
    <glyph glyph-name="jiahao1" unicode="&#59051;" d="M267 344.8h206.2v-206.2c0-21.5 17.5-39 39-39s38.9 17.5 38.9 39V344.8h206.3c21.5 0 38.9 17.5 38.9 39s-17.5 39-38.9 39H551.2V629c0 21.5-17.5 39-38.9 39-21.5 0-39-17.5-39-39v-206.2H267c-21.5 0-39-17.5-39-39s17.5-39 39-39zM853.6 831.8H170.8C112 831.8 64.2 784 64.2 725.2v-682.8c0-58.8 47.8-106.6 106.6-106.6h682.8c58.8 0 106.6 47.8 106.6 106.6V725.2c0 58.7-47.8 106.6-106.6 106.6zM142.2 725.2c0 15.8 12.9 28.7 28.7 28.7h682.8c15.8 0 28.7-12.8 28.7-28.7v-682.8c0-15.8-12.9-28.7-28.7-28.7H170.8c-15.8 0-28.7 12.8-28.7 28.7V725.2z"  horiz-adv-x="1024" />

    
    <glyph glyph-name="sou_suo" unicode="&#58915;" d="M993.28-40.96l-185.344 184.32c158.72 184.32 143.36 460.8-34.816 626.688C595.968 935.936 318.464 930.816 146.432 758.784-21.504 590.848-30.72 321.536 124.928 142.336c155.648-179.2 423.936-206.848 613.376-63.488l187.392-187.392c12.288-12.288 29.696-16.384 46.08-12.288 16.384 4.096 29.696 17.408 33.792 33.792 5.12 16.384 0 33.792-12.288 46.08z m-527.36 122.88c-197.632 0-357.376 159.744-357.376 357.376 0 196.608 159.744 356.352 357.376 356.352 197.632 0 357.376-159.744 357.376-357.376 0-196.608-159.744-356.352-357.376-356.352z"  horiz-adv-x="1024" />

    
    <glyph glyph-name="zhankai-" unicode="&#59112;" d="M512.512 825.344c-243.2 0-440.32-197.12-440.32-440.32s197.12-440.32 440.32-440.32 440.32 197.12 440.32 440.32-197.12 440.32-440.32 440.32zM263.68 439.808c-17.408 17.408-17.408 45.056 0 61.952 17.408 17.408 45.056 17.408 62.464 0l186.88-186.88L699.904 501.76c17.408 17.408 45.056 17.408 62.464 0 17.408-17.408 17.408-45.056 0-62.464l-217.6-218.112c-17.408-17.408-45.056-17.408-62.464 0L263.68 439.808z"  horiz-adv-x="1024" />

    
    <glyph glyph-name="jilu-" unicode="&#58940;" d="M158.983 825.38c-38.978 0-70.707-31.495-70.707-70.461V-57.54c0-39.002 31.704-70.46 70.707-70.46h706.034c38.978 0 70.707 31.495 70.707 70.46V754.92c0 39.003-31.704 70.46-70.707 70.46H759.172l35.31-35.31V843.087C794.483 872.193 770.798 896 741.579 896H282.422c-29.331 0-52.905-23.69-52.905-52.913v-53.018l35.31 35.31H158.984z m141.155-70.621V843.087c0-9.702-7.966-17.708-17.716-17.708h459.156a17.637 17.637 0 0 0-17.716 17.708v-88.328h141.155c0.123 0 0.086-812.299 0.086-812.299 0 0.155-706.12 0.16-706.12 0.16-0.123 0-0.086 812.299-0.086 812.299 0-0.155 105.93-0.16 105.93-0.16h35.31z m423.724-17.708c0 9.702 7.966 17.708 17.716 17.708H282.422a17.637 17.637 0 0 0 17.716-17.708v53.018c0 19.501-15.81 35.31-35.31 35.31-19.502 0-35.31-15.809-35.31-35.31v-53.018c0-29.106 23.685-52.913 52.904-52.913h459.156c29.331 0 52.905 23.69 52.905 52.913v53.018c0 19.501-15.81 35.31-35.31 35.31-19.502 0-35.31-15.809-35.31-35.31v-53.018z m0-282.43c19.501 0 35.31 15.809 35.31 35.31 0 19.501-15.809 35.31-35.31 35.31H300.138c-19.501 0-35.31-15.809-35.31-35.31 0-19.501 15.809-35.31 35.31-35.31h423.724zM300.138 348.69c-19.501 0-35.31-15.81-35.31-35.31 0-19.502 15.809-35.311 35.31-35.311h423.724c19.501 0 35.31 15.809 35.31 35.31 0 19.502-15.809 35.31-35.31 35.31H300.138z m0-176.552c-19.501 0-35.31-15.81-35.31-35.31 0-19.502 15.809-35.31 35.31-35.31H582.62c19.501 0 35.31 15.808 35.31 35.31 0 19.5-15.809 35.31-35.31 35.31H300.138z"  horiz-adv-x="1024" />

    
    <glyph glyph-name="zhankai" unicode="&#58888;" d="M89.1 706.8c13.2-10.8 26.3-21.5 39.5-32.3 31.4-25.6 62.7-51.3 94.1-76.9 38.2-31.2 76.4-62.4 114.5-93.6 32.8-26.8 65.6-53.6 98.3-80.4l48-39.3c0.2-0.2 0.5-0.4 0.7-0.6 7.3-5.9 15.6-11 25.5-10.5 3.2 0.4 6.4 0.9 9.6 1.3 6.1 1.7 11.4 4.8 15.9 9.3 13.5 10.8 26.9 21.5 40.4 32.3l96.6 77.1c38.9 31.1 77.9 62.2 116.8 93.3 33.8 26.9 67.5 53.9 101.3 80.8 16.3 13 33 25.6 48.9 39.1 0.2 0.2 0.5 0.4 0.7 0.6 6.7 5.4 10.5 17.3 10.5 25.5 0 8.8-3.9 19.4-10.5 25.5-6.9 6.3-15.9 11-25.5 10.5-3.2-0.4-6.4-0.9-9.6-1.3-6.1-1.7-11.4-4.8-15.9-9.3-13.5-10.8-26.9-21.5-40.4-32.3l-96.6-77.1c-38.9-31.1-77.9-62.2-116.8-93.3-33.8-26.9-67.5-53.9-101.3-80.8-16.3-13-32.9-25.7-48.9-39.1-0.2-0.2-0.5-0.4-0.7-0.6h50.9c-13.2 10.8-26.3 21.5-39.5 32.3-31.4 25.6-62.7 51.3-94.1 76.9-38.2 31.2-76.4 62.4-114.5 93.6-32.8 26.8-65.6 53.6-98.3 80.4l-48 39.3c-0.2 0.2-0.5 0.4-0.7 0.6-7.6 6.2-15.3 10.5-25.5 10.5-8.8 0-19.4-3.9-25.5-10.5-6.3-6.9-11-15.9-10.5-25.5 0.4-9 3.3-19.6 10.6-25.5zM89.1 294.5c13.2-10.8 26.3-21.5 39.5-32.3 31.4-25.6 62.7-51.3 94.1-76.9 38.2-31.2 76.4-62.4 114.5-93.6 32.8-26.8 65.6-53.6 98.3-80.4l48-39.3c0.2-0.2 0.5-0.4 0.7-0.6 7.3-5.9 15.6-11 25.5-10.5 3.2 0.4 6.4 0.9 9.6 1.3 6.1 1.7 11.4 4.8 15.9 9.3 13.5 10.8 26.9 21.5 40.4 32.3l96.6 77.1c38.9 31.1 77.9 62.2 116.8 93.3 33.8 26.9 67.5 53.9 101.3 80.8 16.3 13 33 25.6 48.9 39.1 0.2 0.2 0.5 0.4 0.7 0.6 6.7 5.4 10.5 17.3 10.5 25.5 0 8.8-3.9 19.4-10.5 25.5-6.9 6.3-15.9 11-25.5 10.5-3.2-0.4-6.4-0.9-9.6-1.3-6.1-1.7-11.4-4.8-15.9-9.3-13.5-10.8-26.9-21.5-40.4-32.3l-96.6-77.1C713 205.1 674 174 635.1 142.9c-33.8-26.9-67.5-53.9-101.3-80.8-16.3-13-32.9-25.7-48.9-39.1-0.2-0.2-0.5-0.4-0.7-0.6h50.9c-13.2 10.8-26.3 21.5-39.5 32.3-31.4 25.6-62.7 51.3-94.1 76.9-38.2 31.2-76.4 62.4-114.5 93.6-32.8 26.8-65.6 53.6-98.3 80.4l-48 39.3c-0.2 0.2-0.5 0.4-0.7 0.6-7.6 6.2-15.3 10.5-25.5 10.5-8.8 0-19.4-3.9-25.5-10.5-6.3-6.9-11-15.9-10.5-25.5 0.4-9 3.3-19.6 10.6-25.5z"  horiz-adv-x="1024" />

    
    <glyph glyph-name="shouqi" unicode="&#58889;" d="M89.1 22.3c13.2 10.8 26.3 21.5 39.5 32.3 31.4 25.6 62.7 51.3 94.1 76.9 38.2 31.2 76.4 62.4 114.5 93.6 32.8 26.8 65.6 53.6 98.3 80.4l48 39.3c0.2 0.2 0.5 0.4 0.7 0.6 7.3 5.9 15.6 11 25.5 10.5 3.2-0.4 6.4-0.9 9.6-1.3 6.1-1.7 11.4-4.8 15.9-9.3 13.5-10.8 26.9-21.5 40.4-32.3l96.6-77.1c38.9-31.1 77.9-62.2 116.8-93.3 33.8-26.9 67.5-53.9 101.3-80.8 16.3-13 33-25.6 48.9-39.1 0.2-0.2 0.5-0.4 0.7-0.6 6.7-5.4 10.5-17.3 10.5-25.5 0-8.8-3.9-19.4-10.5-25.5-6.9-6.3-15.9-11-25.5-10.5-3.2 0.4-6.4 0.9-9.6 1.3-6.1 1.7-11.4 4.8-15.9 9.3-13.5 10.8-26.9 21.5-40.4 32.3l-96.6 77.1c-38.9 31.1-77.9 62.2-116.8 93.3-33.8 26.9-67.5 53.9-101.3 80.8-16.3 13-32.9 25.7-48.9 39.1-0.2 0.2-0.5 0.4-0.7 0.6h50.9c-13.2-10.8-26.3-21.5-39.5-32.3-31.4-25.6-62.7-51.3-94.1-76.9-38.2-31.2-76.4-62.4-114.5-93.6-32.8-26.8-65.6-53.6-98.3-80.4l-48-39.3c-0.2-0.2-0.5-0.4-0.7-0.6-7.6-6.2-15.3-10.5-25.5-10.5-8.8 0-19.4 3.9-25.5 10.5-6.3 6.9-11 15.9-10.5 25.5 0.4 9 3.3 19.5 10.6 25.5zM89.1 434.6c13.2 10.8 26.3 21.5 39.5 32.3 31.4 25.6 62.7 51.3 94.1 76.9 38.2 31.2 76.4 62.4 114.5 93.6 32.8 26.8 65.6 53.6 98.3 80.4l48 39.3c0.2 0.2 0.5 0.4 0.7 0.6 7.3 5.9 15.6 11 25.5 10.5 3.2-0.4 6.4-0.9 9.6-1.3 6.1-1.7 11.4-4.8 15.9-9.3 13.5-10.8 26.9-21.5 40.4-32.3l96.6-77.1c38.9-31.1 77.9-62.2 116.8-93.3 33.8-26.9 67.5-53.9 101.3-80.8 16.3-13 33-25.6 48.9-39.1 0.2-0.2 0.5-0.4 0.7-0.6 6.7-5.4 10.5-17.3 10.5-25.5 0-8.8-3.9-19.4-10.5-25.5-6.9-6.3-15.9-11-25.5-10.5-3.2 0.4-6.4 0.9-9.6 1.3-6.1 1.7-11.4 4.8-15.9 9.3-13.5 10.8-26.9 21.5-40.4 32.3l-96.6 77.1C713 524 674 555.1 635.1 586.2c-33.8 26.9-67.5 53.9-101.3 80.8-16.3 13-32.9 25.7-48.9 39.1-0.2 0.2-0.5 0.4-0.7 0.6h50.9c-13.2-10.8-26.3-21.5-39.5-32.3-31.4-25.6-62.7-51.3-94.1-76.9-38.2-31.2-76.4-62.4-114.5-93.6-32.8-26.8-65.6-53.6-98.3-80.4l-48-39.3c-0.2-0.2-0.5-0.4-0.7-0.6-7.6-6.2-15.3-10.5-25.5-10.5-8.8 0-19.4 3.9-25.5 10.5-6.3 6.9-11 15.9-10.5 25.5 0.4 9 3.3 19.5 10.6 25.5z"  horiz-adv-x="1024" />

    
    <glyph glyph-name="xiangxia" unicode="&#58894;" d="M544.7 106.7l464.9 486c17.8 18.6 17.8 49.9 0 69.4-17.8 18.6-47.7 18.6-66.4 0L511.1 210.3 80.7 660.1c-17.8 18.6-47.7 18.6-66.4 0-17.8-18.6-17.8-49.9 0-69.4l463.1-484c19.6-19.6 48.6-19.6 67.3 0z"  horiz-adv-x="1024" />

    
    <glyph glyph-name="lianjie" unicode="&#59130;" d="M585.643 195.81c-10.532 10.549-10.517 27.639 0.032 38.171a26.99 26.99 0 0 0 19.037 7.889h156.604a142.733 142.733 0 0 1 101.655 42.117 142.839 142.839 0 0 1 42.153 101.655 142.702 142.702 0 0 1-42.153 101.691 142.804 142.804 0 0 1-101.655 42.081h-156.64c-14.887 0-26.955 12.068-26.955 26.955 0 14.887 12.068 26.955 26.955 26.955h156.64c52.835 0 102.443-20.575 139.793-57.925a196.289 196.289 0 0 0 57.889-139.793c0-52.799-20.539-102.479-57.889-139.829-37.35-37.35-86.995-57.889-139.793-57.889h-156.64a27.25 27.25 0 0 0-19.033 7.922zM122.64 245.849a196.61 196.61 0 0 0-57.925 139.793c0.158 109.151 88.603 197.596 197.754 197.754h156.676c14.887 0 26.955-12.068 26.955-26.955 0-14.887-12.068-26.955-26.955-26.955h-156.64c-79.382-0.099-143.709-64.426-143.808-143.808 0-38.425 14.947-74.556 42.081-101.691 27.134-27.134 63.301-42.117 101.691-42.081l156.64-0.036c14.887 0 26.955-12.068 26.955-26.955s-12.068-26.955-26.955-26.955l-156.64-0.036a196.65 196.65 0 0 0-139.829 57.925zM263.115 366.609c-10.552 10.473-10.615 27.518-0.141 38.069 5.08 5.118 12 7.983 19.211 7.955h409.164c14.897 0 26.973-12.076 26.973-26.973 0-14.897-12.076-26.973-26.973-26.973H282.184a26.888 26.888 0 0 0-19.069 7.922z"  horiz-adv-x="1024" />

    
    <glyph glyph-name="xiangshangjiantou-copy-copy-copy" unicode="&#58884;" d="M512 632.74996745l-421.875-460.44140625h843.75087891z"  horiz-adv-x="1024" />

    
    <glyph glyph-name="bangsan" unicode="&#58910;" d="M256 256h512v-384c-83.882667 85.333333-168.661333 128-254.378667 128S342.058667-42.666667 256-128v384zM512 469.333333m-426.666667 0a426.666667 426.666667 0 1 1 853.333334 0 426.666667 426.666667 0 1 1-853.333334 0ZM512 469.333333m-341.333333 0a341.333333 341.333333 0 1 1 682.666666 0 341.333333 341.333333 0 1 1-682.666666 0ZM520.704 661.333333c36.864 0 67.072-8.704 89.6-26.624 22.016-17.92 33.28-42.496 33.28-74.24 0-39.936-20.48-66.56-60.928-79.872 21.504-6.656 38.4-16.384 49.664-29.696 12.288-13.824 18.432-31.744 18.432-53.248 0-33.792-11.776-61.44-35.328-82.944-24.576-22.016-56.832-33.28-96.768-33.28-37.888 0-68.608 9.728-91.648 29.184-25.6 21.504-39.936 53.248-43.008 94.208h60.928c1.024-23.552 8.192-41.984 22.528-54.784 12.8-11.776 29.696-17.92 50.688-17.92 23.04 0 41.472 6.656 54.784 19.456 11.776 11.776 17.92 26.112 17.92 43.52 0 20.992-6.656 36.352-18.944 46.08-12.288 10.24-30.208 14.848-53.76 14.848h-25.6V501.077333h25.6c21.504 0 37.888 4.608 49.152 13.824 10.752 9.216 16.384 23.04 16.384 40.96 0 17.92-5.12 31.232-14.848 40.448-10.752 9.216-26.624 13.824-47.616 13.824-21.504 0-37.888-5.12-49.664-15.872-12.288-10.752-19.456-27.136-21.504-49.152h-58.88c3.072 36.864 16.384 65.536 40.96 86.016 23.04 20.48 52.736 30.208 88.576 30.208z"  horiz-adv-x="1024" />

    
    <glyph glyph-name="banger" unicode="&#58917;" d="M256 256h512v-384c-83.882667 85.333333-168.661333 128-254.378667 128S342.058667-42.666667 256-128v384zM512 469.333333m-426.666667 0a426.666667 426.666667 0 1 1 853.333334 0 426.666667 426.666667 0 1 1-853.333334 0ZM512 469.333333m-341.333333 0a341.333333 341.333333 0 1 1 682.666666 0 341.333333 341.333333 0 1 1-682.666666 0ZM517.12 657.066667c35.328 0 64.512-10.24 87.552-30.72 22.528-20.48 33.792-46.592 33.792-79.36 0-31.744-12.288-60.416-35.84-86.528-14.336-15.36-39.936-34.816-75.776-58.88-37.376-24.576-59.904-46.08-68.096-64.512h180.224v-52.736H384c0 37.376 11.776 69.632 36.352 97.28 13.312 15.36 41.472 37.888 83.968 67.072 23.552 16.384 39.936 30.208 50.176 40.96 15.872 17.92 24.064 37.376 24.064 57.856 0 19.968-5.632 34.816-15.872 44.544-10.752 9.728-26.624 14.336-47.616 14.336-22.528 0-39.424-7.68-50.688-23.04-11.264-14.336-17.408-36.352-18.432-65.024H386.048c0.512 40.96 12.288 73.728 35.84 98.816 24.064 26.624 55.808 39.936 95.232 39.936z"  horiz-adv-x="1024" />

    
    <glyph glyph-name="-fanhui" unicode="&#58920;" d="M420.633234 384l362.057143 362.057143A73.142857 73.142857 0 1 1 679.266377 849.481143L265.497234 435.712a73.142857 73.142857 0 0 1 0-103.424l413.769143-413.769143a73.142857 73.142857 0 0 1 103.424 103.424L420.633234 384z"  horiz-adv-x="1024" />

    
    <glyph glyph-name="bangyi" unicode="&#58947;" d="M256 256h512v-384c-83.882667 85.333333-168.661333 128-254.378667 128S342.058667-42.666667 256-128v384zM512 469.333333m-426.666667 0a426.666667 426.666667 0 1 1 853.333334 0 426.666667 426.666667 0 1 1-853.333334 0ZM512 469.333333m-341.333333 0a341.333333 341.333333 0 1 1 682.666666 0 341.333333 341.333333 0 1 1-682.666666 0ZM524.970667 640h45.056v-365.568H510.122667V567.808C488.106667 547.84 460.458667 532.992 426.666667 523.264V582.656a217.173333 217.173333 0 0 1 52.224 21.504 228.266667 228.266667 0 0 1 46.08 35.84z"  horiz-adv-x="1024" />

    
    <glyph glyph-name="-fenxiang" unicode="&#58921;" d="M333.637818 316.74181799999997a46.545455 46.545455 0 0 0 64.558546 12.893091l279.272727-186.181818a46.545455 46.545455 0 1 0-51.665455-77.451636l-279.272727 186.181818a46.545455 46.545455 0 0 0-12.893091 64.558545z m328.610909 321.070546a46.545455 46.545455 0 1 0 43.799273-82.152728l-311.808-166.167272a46.545455 46.545455 0 0 0-43.752727 82.106181zM791.272727 244.36363600000004a186.181818 186.181818 0 1 0 0-372.363636 186.181818 186.181818 0 0 0 0 372.363636z m0-93.090909a93.090909 93.090909 0 1 1 0-186.181818 93.090909 93.090909 0 0 1 0 186.181818zM232.727273 570.181818a186.181818 186.181818 0 1 0 0-372.363636 186.181818 186.181818 0 0 0 0 372.363636z m0-93.090909a93.090909 93.090909 0 1 1 0-186.181818 93.090909 93.090909 0 0 1 0 186.181818z m558.545454 418.909091a186.181818 186.181818 0 1 0 0-372.363636 186.181818 186.181818 0 0 0 0 372.363636z m0-93.090909a93.090909 93.090909 0 1 1 0-186.181818 93.090909 93.090909 0 0 1 0 186.181818z"  horiz-adv-x="1024" />

    
    <glyph glyph-name="-gegubangdan" unicode="&#58922;" d="M704 896a128 128 0 0 0 128-128v-320a320.128 320.128 0 0 0-255.936-313.6L576 0h128a64 64 0 0 0 63.552-56.512L768-64a64 64 0 0 0-64-64H320a64 64 0 0 0 0 128h128v134.4A320.128 320.128 0 0 0 192 448V768a128 128 0 0 0 128 128h384z m0-128H320v-320a192 192 0 0 1 384 0V768zM192.32 434.112c1.728-40.448 10.88-78.976 26.304-114.176L192 320a192 192 0 0 0-192 192V640a64 64 0 0 0 64 64h128v-128H128v-64a64 64 0 0 1 64-64zM960 704a64 64 0 0 0 64-64v-128a192 192 0 0 0-192-192h-26.624c17.088 39.168 26.624 82.496 26.624 128a64 64 0 0 1 64 64V576h-64V704h128z"  horiz-adv-x="1024" />

    
    <glyph glyph-name="-huadong" unicode="&#58923;" d="M0 896m480.370486 0l480.370485 0q480.370486 0 480.370486-480.370486l0 0q0-480.370486-480.370486-480.370485l-480.370485 0q-480.370486 0-480.370486 480.370485l0 0q0 480.370486 480.370486 480.370486ZM593.930069 415.53344L441.07618 262.67955199999994a72.055573 72.055573 0 0 1 101.838543-101.934617l203.869234 203.77316a72.055573 72.055573 0 0 1 0 101.934617L543.010797 670.225872A72.055573 72.055573 0 0 1 440.980106 568.387329l152.853888-152.853889zM978.226457 415.53344L825.372569 262.67955199999994a72.055573 72.055573 0 0 1 101.838543-101.934617l203.869234 203.77316a72.055573 72.055573 0 0 1 0 101.934617L927.307186 670.225872A72.055573 72.055573 0 0 1 825.276494 568.387329l152.853889-152.853889z"  horiz-adv-x="1536" />

    
    <glyph glyph-name="-lianjie" unicode="&#58924;" d="M780.190476 896v-146.285714h-268.190476a365.714286 365.714286 0 0 1 0-731.428572H780.190476v-146.285714h-268.190476C229.229714-128 0 101.22971399999994 0 384S229.229714 896 512 896H780.190476z m487.619048 0h268.190476C1818.770286 896 2048 666.7702859999999 2048 384S1818.770286-128 1536-128H1267.809524v146.285714h268.190476a365.714286 365.714286 0 0 1 0 731.428572H1267.809524V896zM536.380952 457.142857m73.142858 0l828.95238 0q73.142857 0 73.142858-73.142857l0 0q0-73.142857-73.142858-73.142857l-828.95238 0q-73.142857 0-73.142858 73.142857l0 0q0 73.142857 73.142858 73.142857Z"  horiz-adv-x="2048" />

    
    <glyph glyph-name="-jiantou-you" unicode="&#58925;" d="M272.270222 38.79822200000001a85.333333 85.333333 0 0 1 126.748445-114.119111L761.173333 326.883556a85.333333 85.333333 0 0 1 0 114.232888L399.018667 843.320889A85.333333 85.333333 0 0 1 272.270222 729.201778L582.883556 384 272.270222 38.79822200000001z"  horiz-adv-x="1024" />

    
    <glyph glyph-name="-shanglajiantou" unicode="&#58927;" d="M336.213333 32.42666699999995A128 128 0 1 0 155.136 213.33333300000004L758.442667 816.810667a128 128 0 0 0 181.077333 0L1542.997333 213.33333300000004A128 128 0 1 0 1361.92 32.42666699999995L849.066667 545.28 336.213333 32.42666699999995z"  horiz-adv-x="1706" />

    
    <glyph glyph-name="-shouqi" unicode="&#58929;" d="M927.5392 380.928a76.8 76.8 0 0 1 0 108.544L565.5552 851.5584a76.8 76.8 0 0 1-108.6464 0L94.8224 489.472a76.8 76.8 0 0 1 108.6464-108.544l307.712 307.712L818.8928 380.928a76.8 76.8 0 0 1 108.6464 0z m0-406.016a76.8 76.8 0 0 1 0 108.544L565.5552 445.6448a76.8 76.8 0 0 1-108.6464 0L94.8224 83.5584a76.8 76.8 0 0 1 108.6464-108.544L511.1808 282.624l307.712-307.712a76.8 76.8 0 0 1 108.6464 0z"  horiz-adv-x="1024" />

    
    <glyph glyph-name="-riqi" unicode="&#58930;" d="M134.736842 626.526316v-592.842105a53.894737 53.894737 0 0 1 53.894737-53.894737h646.736842a53.894737 53.894737 0 0 1 53.894737 53.894737V626.526316a53.894737 53.894737 0 0 1-53.894737 53.894737H188.631579a53.894737 53.894737 0 0 1-53.894737-53.894737z m0 161.68421h754.526316a107.789474 107.789474 0 0 0 107.789474-107.789473v-700.631579a107.789474 107.789474 0 0 0-107.789474-107.789474H134.736842a107.789474 107.789474 0 0 0-107.789474 107.789474V680.421053a107.789474 107.789474 0 0 0 107.789474 107.789473zM296.421053 896m53.894736 0l0 0q53.894737 0 53.894737-53.894737l0-215.578947q0-53.894737-53.894737-53.894737l0 0q-53.894737 0-53.894736 53.894737l0 215.578947q0 53.894737 53.894736 53.894737ZM619.789474 896m53.894737 0l0 0q53.894737 0 53.894736-53.894737l0-215.578947q0-53.894737-53.894736-53.894737l0 0q-53.894737 0-53.894737 53.894737l0 215.578947q0 53.894737 53.894737 53.894737ZM242.526316 464.842105m53.894737 0l215.578947 0q53.894737 0 53.894737-53.894737l0 0q0-53.894737-53.894737-53.894736l-215.578947 0q-53.894737 0-53.894737 53.894736l0 0q0 53.894737 53.894737 53.894737ZM242.526316 249.26315799999998m53.894737 0l431.157894 0q53.894737 0 53.894737-53.894737l0 0q0-53.894737-53.894737-53.894737l-431.157894 0q-53.894737 0-53.894737 53.894737l0 0q0 53.894737 53.894737 53.894737Z"  horiz-adv-x="1024" />

    
    <glyph glyph-name="-jigoujingmai" unicode="&#58931;" d="M396.8 281.6a38.4 38.4 0 0 0 38.4-38.4V-76.79999999999995H358.4v320a38.4 38.4 0 0 0 38.4 38.4z m230.4 0a38.4 38.4 0 0 0 38.4-38.4V-76.79999999999995h-76.8v320a38.4 38.4 0 0 0 38.4 38.4zM102.4 537.6h819.2v-665.6H102.4V537.6z m76.8-76.8v-512h665.6v512h-665.6zM38.4-51.04639999999995h947.2a38.4 38.4 0 1 0 0-76.8H38.4a38.4 38.4 0 1 0 0 76.8z m0-51.2a12.8 12.8 0 1 1 0 25.6h947.2a12.8 12.8 0 1 1 0-25.6H38.4zM488.448 886.9376a38.4 38.4 0 0 0 47.104 0l460.8-358.4c28.8768-22.4256 13.0048-68.7104-23.552-68.7104H51.2c-36.5568 0-52.4288 46.2848-23.552 68.7104l460.8 358.4zM512 807.9872l-348.8768-271.36h697.7536L512 807.9872z"  horiz-adv-x="1024" />

    
    <glyph glyph-name="-wenziqingchu" unicode="&#58932;" d="M512 384m-512 0a512 512 0 1 1 1024 0 512 512 0 1 1-1024 0ZM683.235556 615.3102220000001l60.359111-60.302222L572.586667 384l171.008-170.951111-60.302223-60.302222-171.008 170.951111L341.333333 152.68977800000005l-60.302222 60.302222L451.925333 384 281.031111 554.9511110000001 341.333333 615.253333 512.284444 444.302222l170.951112 171.008z"  horiz-adv-x="1024" />

    
    <glyph glyph-name="-xialajiantou" unicode="&#58933;" d="M336.213333 735.573333A128 128 0 1 1 155.136 554.666667l603.306667-603.477334a128 128 0 0 1 181.077333 0L1542.997333 554.666667A128 128 0 1 1 1361.92 735.573333L849.066667 222.72000000000003 336.213333 735.573333z"  horiz-adv-x="1706" />

    
    <glyph glyph-name="-zhankai" unicode="&#58934;" d="M927.5392 387.072a76.8 76.8 0 0 0 0-108.544L565.5552-83.5584a76.8 76.8 0 0 0-108.6464 0L94.8224 278.528a76.8 76.8 0 0 0 108.6464 108.544l307.712-307.712L818.8928 387.072a76.8 76.8 0 0 0 108.6464 0z m0 406.016a76.8 76.8 0 0 0 0-108.544L565.5552 322.35519999999997a76.8 76.8 0 0 0-108.6464 0L94.8224 684.4416a76.8 76.8 0 0 0 108.6464 108.544L511.1808 485.376l307.712 307.712a76.8 76.8 0 0 0 108.6464 0z"  horiz-adv-x="1024" />

    
    <glyph glyph-name="-youzijingmai" unicode="&#58935;" d="M512-128c282.763636 0 512 229.236364 512 512S794.763636 896 512 896 0 666.763636 0 384s229.236364-512 512-512z m0 69.818182a442.181818 442.181818 0 1 0 0 884.363636 442.181818 442.181818 0 0 0 0-884.363636zM530.152727 553.890909l-247.621818-247.621818a34.909091 34.909091 0 0 1 49.338182-49.338182l307.2 307.2a34.909091 34.909091 0 0 1-24.669091 59.578182H443.671273a34.909091 34.909091 0 1 1 0-69.818182h86.434909zM493.940364 214.10909100000003l247.621818 247.621818a34.909091 34.909091 0 0 1-49.338182 49.338182l-307.2-307.2a34.909091 34.909091 0 0 1 24.669091-59.578182h170.728727a34.909091 34.909091 0 1 1 0 69.818182h-86.481454z"  horiz-adv-x="1024" />

    
    <glyph glyph-name="-shuoming" unicode="&#58936;" d="M512 151.27272700000003a46.545455 46.545455 0 1 0 0-93.090909 46.545455 46.545455 0 0 0 0 93.090909zM325.818182 528.849455c0 116.317091 110.638545 202.286545 229.096727 176.267636 67.723636-14.894545 122.554182-67.677091 138.24-133.818182 21.410909-90.158545-27.694545-177.803636-112.128-210.571636a34.536727 34.536727 0 0 1-22.481454-32.023273V244.36363600000004a46.545455 46.545455 0 0 0-93.09091 0v84.340364c0 52.503273 32.488727 99.607273 81.92 118.784 42.030545 16.337455 65.629091 58.461091 55.20291 102.306909-7.354182 30.999273-34.443636 57.111273-67.677091 64.418909C473.832727 627.618909 418.909091 584.936727 418.909091 528.849455a46.545455 46.545455 0 0 0-93.090909 0zM512-128c282.763636 0 512 229.236364 512 512S794.763636 896 512 896 0 666.763636 0 384s229.236364-512 512-512z m0 93.090909a418.909091 418.909091 0 1 0 0 837.818182 418.909091 418.909091 0 0 0 0-837.818182z"  horiz-adv-x="1024" />

    
    <glyph glyph-name="-Search" unicode="&#58938;" d="M448.00896 896a448 448 0 0 0 358.848-716.224l198.4-198.528a64 64 0 0 0-90.496-90.496l-198.528 198.4A448 448 0 1 0 448.00896 896z m0-128a320 320 0 1 1 0-640A320 320 0 0 1 448.00896 768z"  horiz-adv-x="1024" />

    
    <glyph glyph-name="-zhankaidanchuang" unicode="&#58939;" d="M870.4 8.447999999999979L1382.4 691.2A128 128 0 0 1 1280 896H256a128 128 0 0 1-102.4-204.8l512-682.752a128 128 0 0 1 204.8 0z"  horiz-adv-x="1536" />

    
    <glyph glyph-name="-yingyebubangdan" unicode="&#58941;" d="M51.2-128V793.6a102.4 102.4 0 0 0 102.4 102.4h460.8a102.4 102.4 0 0 0 102.4-102.4v-102.4h153.6a102.4 102.4 0 0 0 102.4-102.4v-716.8H51.2zM614.4 819.2H153.6a25.6 25.6 0 0 1-25.6-25.6v-844.8h512V793.6a25.6 25.6 0 0 1-25.6 25.6z m256-204.8h-153.6v-665.6h179.2V588.8a25.6 25.6 0 0 1-25.6 25.6zM0-51.04639999999995m38.4 0l947.2 0q38.4 0 38.4-38.4l0 0q0-38.4-38.4-38.4l-947.2 0q-38.4 0-38.4 38.4l0 0q0 38.4 38.4 38.4ZM524.8 281.6a38.4 38.4 0 1 0 0-76.8h-281.6a38.4 38.4 0 1 0 0 76.8h281.6z m0 256a38.4 38.4 0 1 0 0-76.8h-281.6a38.4 38.4 0 0 0 0 76.8h281.6z"  horiz-adv-x="1024" />

    
    <glyph glyph-name="-jinriremen" unicode="&#58942;" d="M227.555556 765.952h682.666666a227.555556 227.555556 0 0 0 227.555556-227.555556V99.55555600000002a227.555556 227.555556 0 0 0-227.555556-227.555556H227.555556a227.555556 227.555556 0 0 0-227.555556 227.555556V538.396444a227.555556 227.555556 0 0 0 227.555556 227.555556z m0-113.777778a113.777778 113.777778 0 0 1-113.777778-113.777778V99.55555600000002a113.777778 113.777778 0 0 1 113.777778-113.777778h682.666666a113.777778 113.777778 0 0 1 113.777778 113.777778V538.396444a113.777778 113.777778 0 0 1-113.777778 113.777778H227.555556zM420.465778 240.41244400000005h314.823111a56.888889 56.888889 0 1 1 0 113.777778H420.465778a56.888889 56.888889 0 1 1 0-113.777778zM311.637333 839.111111v-222.833778a56.888889 56.888889 0 1 1 113.777778 0V839.111111a56.888889 56.888889 0 1 1-113.777778 0zM756.849778 839.111111v-222.833778a56.888889 56.888889 0 0 1 113.777778 0V839.111111a56.888889 56.888889 0 1 1-113.777778 0z"  horiz-adv-x="1137" />

    
    <glyph glyph-name="-jinrishichanghuolichicang" unicode="&#58943;" d="M128 757.0432000000001V-17.408000000000015a102.4 102.4 0 0 1 148.2752-91.5456l279.9616 140.288 290.304-141.7216a102.4 102.4 0 0 1 147.2512 92.0576V757.0432000000001a51.2 51.2 0 1 1-102.4 0V-18.432000000000016L601.1904 123.28959999999995a102.4 102.4 0 0 1-90.8288-0.512L230.4-17.408000000000015V757.0432000000001a51.2 51.2 0 1 1-102.4 0zM51.2 749.6704h1024a51.2 51.2 0 1 1 0 102.4H51.2a51.2 51.2 0 1 1 0-102.4z"  horiz-adv-x="1126" />

    
    <glyph glyph-name="-zixuanguhuolichicang" unicode="&#58944;" d="M483.584 782.165333v-320.853333a128 128 0 0 1 128-128h314.368a42.666667 42.666667 0 1 1 0 85.333333H611.584a42.666667 42.666667 0 0 0-42.666667 42.666667v320.853333a42.666667 42.666667 0 0 1-85.333333 0zM512-85.33333300000004c258.901333 0 469.333333 203.178667 469.333333 454.656C981.333333 620.714667 770.901333 823.893333 512 823.893333S42.666667 620.714667 42.666667 369.322667C42.666667 117.75999999999999 253.098667-85.33333300000004 512-85.33333300000004z m0 85.333333c-212.48 0-384 165.717333-384 369.322667S299.52 738.56 512 738.56s384-165.632 384-369.237333S724.48 0 512 0z"  horiz-adv-x="1024" />

    
    <glyph glyph-name="-jinrizuire" unicode="&#58945;" d="M656.687596 606.746214c-9.91444 49.302786-12.446933 114.878185-12.39305 215.261889l0.053883 21.445365A52.266341 52.266341 0 0 1 573.276982 892.217426c-135.138127-52.212458-209.873607-150.871913-237.946559-282.777071-7.920775-37.17915-11.800339-71.12533-13.039644-111.268035a1020.001894 1020.001894 0 0 0-33.676767 62.504078 52.266341 52.266341 0 0 1-71.233095 23.762326C132.299935 540.254807 80.841836 406.194336 80.841836 289.96908099999996c0-229.75637 191.984509-386.986456 457.195778-386.986456 252.548805 0 405.252734 169.89255 404.929436 413.173509-0.107766 62.073015-12.069753 103.455026-41.435893 167.306174l-5.549931 12.069753c-28.342366 61.426422-37.933509 95.480367-37.394681 154.482062a52.266341 52.266341 0 0 1-66.814704 50.649857c-61.695836-17.889098-106.634112-51.619747-135.084245-93.917766z m144.405974-154.967007l5.496048-11.961988c23.654561-51.458099 31.790867-79.638817 31.898633-123.768851 0.269414-187.889414-108.30448-308.586944-300.450637-308.586944-211.597857 0-352.716978 115.578662-352.716979 282.507657 0 56.092022 17.942981 120.158702 42.998495 161.864009 10.237737-17.72745 21.014302-35.185485 32.168047-51.996927 26.941413-40.519885 53.77506-73.280643 81.093653-96.180845a52.266341 52.266341 0 0 1 85.619811 35.401017c1.454836 16.488145 1.347071 27.480241 0 72.364635-2.316962 78.884457-0.538828 125.169805 10.345502 176.196841 15.464371 72.634049 47.578535 129.103251 102.700666 169.299839 2.801907-176.735669 20.906536-248.615359 93.055641-335.474474 33.461235-40.358237 98.874986-11.746456 91.977984 40.196588-5.388283 40.789299 5.603814 78.93834 35.347133 106.310815 7.05865-37.17915 20.098294-72.041338 40.41212-116.171372z"  horiz-adv-x="1024" />

    
    <glyph glyph-name="-zixuanxiangsi" unicode="&#58946;" d="M107.789474 704.0269470000001h116.197052a107.789474 107.789474 0 0 0 107.789474-107.789473v-436.170106a107.789474 107.789474 0 0 0-107.789474-107.789473H107.789474a107.789474 107.789474 0 0 0-107.789474 107.789473V596.237474a107.789474 107.789474 0 0 0 107.789474 107.789473z m0-107.789473v-436.170106h116.197052V596.237474H107.789474zM843.722105 608.0404209999999h116.197053a107.789474 107.789474 0 0 0 107.789474-107.789474v-276.210526a107.789474 107.789474 0 0 0-107.789474-107.789474h-116.197053a107.789474 107.789474 0 0 0-107.789473 107.789474V500.250947a107.789474 107.789474 0 0 0 107.789473 107.789474z m0-107.789474v-276.210526h116.197053V500.250947h-116.197053zM485.052632 597.9621050000001h116.197052a107.789474 107.789474 0 0 0 107.789474-107.789473v-224.202106a107.789474 107.789474 0 0 0-107.789474-107.789473H485.052632a107.789474 107.789474 0 0 0-107.789474 107.789473V490.172632a107.789474 107.789474 0 0 0 107.789474 107.789473z m0-107.789473v-224.202106h116.197052V490.172632H485.052632zM235.789474 667.594105V842.105263a53.894737 53.894737 0 1 1-107.789474 0v-174.511158a53.894737 53.894737 0 1 1 107.789474 0zM971.722105 586.1052629999999V714.105263a53.894737 53.894737 0 1 1-107.789473 0V586.1052629999999a53.894737 53.894737 0 0 1 107.789473 0zM597.908211 576.0269470000001V704.0269470000001a53.894737 53.894737 0 1 1-107.789474 0v-128a53.894737 53.894737 0 1 1 107.789474 0zM597.908211 52.277894999999944V180.27789499999994a53.894737 53.894737 0 1 1-107.789474 0v-128a53.894737 53.894737 0 1 1 107.789474 0zM971.722105 10.186104999999998v128a53.894737 53.894737 0 1 1-107.789473 0v-128a53.894737 53.894737 0 0 1 107.789473 0zM235.789474-68.39242100000001v174.565053a53.894737 53.894737 0 0 1-107.789474 0v-174.565053a53.894737 53.894737 0 0 1 107.789474 0z"  horiz-adv-x="1077" />

    
    <glyph glyph-name="-huo-hui" unicode="&#58948;" d="M512.085333-128C738.304-128 921.6 67.157333 921.6 307.626667c0 109.226667-37.888 209.237333-100.522667 285.696 2.218667-73.472-20.906667-152.234667-97.28-205.482667C753.664 669.696 532.650667 896 464.213333 896c0-142.848-54.784-327.68-119.466666-373.162667-22.357333 109.482667-76.544 194.56-126.805334 194.56C224.170667 647.338667 102.4 482.986667 102.4 307.541333 102.570667 66.98666700000001 285.866667-128 512.085333-128"  horiz-adv-x="1024" />

    
    <glyph glyph-name="-huo-hong" unicode="&#58949;" d="M512.085333-128C738.304-128 921.6 67.157333 921.6 307.626667c0 109.226667-37.888 209.237333-100.522667 285.696 2.218667-73.472-20.906667-152.234667-97.28-205.482667C753.664 669.696 532.650667 896 464.213333 896c0-142.848-54.784-327.68-119.466666-373.162667-22.357333 109.482667-76.544 194.56-126.805334 194.56C224.170667 647.338667 102.4 482.986667 102.4 307.541333 102.570667 66.98666700000001 285.866667-128 512.085333-128"  horiz-adv-x="1024" />

    
    <glyph glyph-name="-tianjia" unicode="&#58950;" d="M691.2 435.2H563.2V563.2c0 28.16-23.04 51.2-51.2 51.2s-51.2-23.04-51.2-51.2V435.2H332.8c-28.16 0-51.2-23.04-51.2-51.2s23.04-51.2 51.2-51.2H460.8v-128c0-28.16 23.04-51.2 51.2-51.2s51.2 23.04 51.2 51.2V332.79999999999995h128c28.16 0 51.2 23.04 51.2 51.2s-23.04 51.2-51.2 51.2zM512-25.600000000000023c-225.28 0-409.6 184.32-409.6 409.6s181.76 409.6 409.6 409.6c225.28 0 409.6-184.32 409.6-409.6s-184.32-409.6-409.6-409.6zM0 384c0-281.6 230.4-512 512-512s512 230.4 512 512S793.6 896 512 896 0 665.6 0 384z"  horiz-adv-x="1024" />

    
    <glyph glyph-name="-tianjiachenggong" unicode="&#58951;" d="M512 384m-512 0a512 512 0 1 1 1024 0 512 512 0 1 1-1024 0ZM682.9056 574.0032l-241.3568-264.6016-102.7072 112.64a48.0256 48.0256 0 0 1-69.376 0c-17.92-19.7632-17.92-56.32 0-76.032l138.7008-152.064a48.0256 48.0256 0 0 1 69.3248 0l277.3504 304.0768c17.92 22.528 17.92 56.32-2.56 75.9808a48.0256 48.0256 0 0 1-69.376 0z"  horiz-adv-x="1024" />

    
    <glyph glyph-name="-paixushengxu" unicode="&#58952;" d="M556.218182-35.37454500000001l-0.093091 753.105454 118.132364-117.946182 65.815272 65.815273L509.672727 896 279.272727 665.6l65.815273-65.815273 117.946182 117.946182v-753.105454h93.090909z"  horiz-adv-x="1024" />

    
    <glyph glyph-name="-paixujiangxu" unicode="&#58953;" d="M560.615692 896l-0.102349-828.001999 129.88066 129.675962 72.36062-72.36062-253.313344-253.313343L256.127936 125.31334300000003l72.36062 72.36062L458.164518 67.99800100000004V896h102.348825z"  horiz-adv-x="1024" />

    


  </font>
</defs>
</svg>
